<?xml version="1.0" encoding="utf-8"?>
<!-- Generator: Adobe Illustrator 24.1.2, SVG Export Plug-In . SVG Version: 6.00 Build 0)  -->
<svg version="1.1" id="Warstwa_1" xmlns="http://www.w3.org/2000/svg" xmlns:xlink="http://www.w3.org/1999/xlink" x="0px" y="0px"
	 viewBox="0 0 430 430" style="enable-background:new 0 0 430 430;" xml:space="preserve">
<style type="text/css">
	.st0{fill:#08A88A;}
	.st1{fill:#121331;}
	.st2{fill:#08A789;}
	.st3{fill:none;}
	.st4{fill:#08A385;}
	.st5{fill:none;stroke:#121331;stroke-width:12;stroke-linecap:round;stroke-linejoin:round;stroke-miterlimit:10;}
</style>
<g>
	<path class="st0" d="M338.08,54.22c-0.64-2.24-2.53-3.91-4.83-4.27c-24.34-3.85-53.79,9.17-75.01,33.17
		c-20.32,22.97-29.71,52.18-24.52,75.42c-12.65,15.82-16.79,22.11-20.38,30.62c-0.99,2.35-1.89,4.74-2.7,7.16
		c-3.62-9.43-8.32-17.83-13.48-25.15c1.69-17.79-7.93-38.6-25.05-53.73c-17.93-15.85-41.02-22.79-58.84-17.68
		c-2.24,0.64-3.91,2.53-4.27,4.83c-2.9,18.31,6.81,40.38,24.74,56.23c14.02,12.39,31.18,19.34,46.52,19.34
		c2.78,0,5.49-0.25,8.12-0.72c7.11,10.47,13.13,23.32,15.9,38.42c0.46,2.51,0.81,5.05,1.06,7.6c-0.17,4.48-0.05,8.99,0.36,13.48
		c0.28,3.1,2.88,5.45,5.97,5.45c0.05,0,0.1,0,0.15,0c3.16-0.08,5.71-2.59,5.85-5.75c0.19-4.5,0.09-9-0.3-13.45
		c0.41-9.1,2.23-19.97,7.03-31.37c3.06-7.26,6.83-12.94,18.46-27.5c1.7,0.15,3.42,0.24,5.16,0.24c22.4,0,47.56-12.63,66.32-33.84
		C335.56,108.72,344.89,77.91,338.08,54.22z M141.69,151.82c-13.58-12.01-21.57-27.82-21.2-41.39c13.42-2.02,30.09,3.98,43.67,15.98
		c0,0,0,0,0,0c9.41,8.32,16.13,18.47,19.25,28.43c-8.09-8.07-16.02-13.71-21.75-16.77c-2.92-1.56-6.56-0.46-8.12,2.47
		c-1.56,2.92-0.46,6.56,2.47,8.12c6.1,3.26,15.01,9.84,23.61,19.52C167.39,168.04,153.39,162.17,141.69,151.82z M305.35,124.77
		c-15.25,17.24-34.95,28.07-52.8,29.6c10.02-12.16,20.46-24.29,31.16-36.16c2.22-2.46,2.02-6.25-0.44-8.47
		c-2.46-2.22-6.26-2.02-8.47,0.44c-10.47,11.62-20.7,23.47-30.53,35.38c-0.14-17.56,8.14-37.74,22.96-54.49
		c17.4-19.68,40.61-30.99,60.23-29.7C331.16,80.68,322.75,105.09,305.35,124.77z"/>
	<path class="st1" d="M355.04,291.4c-7.04-13.13-23.44-18.08-36.57-11.05c-0.14,0.08-0.28,0.16-0.41,0.24l-2.07,1.33
		c-7.98-12.86-20.85-20.61-34.87-20.61c-5.68,0-11.27,1.29-16.45,3.78c-12.19-20.32-32.33-32.7-53.84-32.7s-41.65,12.38-53.84,32.7
		c-5.19-2.48-10.78-3.78-16.45-3.78c-19.01,0-35.4,14.05-40.95,34.61c-6.99,1.9-14.34,4.16-22.1,6.79
		c-2.44,0.83-4.07,3.11-4.07,5.68v48.87c0,3.31,2.69,6,6,6h7.71c24.44,0,48.97,2.48,72.91,7.37l41.57,8.49
		c5.29,1.08,10.64,1.61,15.98,1.61c13.62,0,27.11-3.48,39.14-10.24c0.12-0.07,0.25-0.14,0.37-0.22l92.9-61.31
		c3.05-1.73,5.3-4.64,6.2-8.04C357.01,297.7,356.61,294.32,355.04,291.4z M140.53,273.31c5.37,0,10.67,1.72,15.33,4.97
		c1.43,1,3.23,1.33,4.93,0.9c1.69-0.43,3.12-1.59,3.89-3.16c9.64-19.52,27.32-31.64,46.15-31.64s36.51,12.12,46.15,31.64
		c0.77,1.57,2.2,2.72,3.89,3.16s3.49,0.11,4.93-0.9c4.65-3.25,9.95-4.97,15.33-4.97c9.84,0,18.98,5.68,24.77,15.1l-33.67,21.64
		c-1.34-2.92-3.21-5.61-5.55-7.95c-5.18-5.18-12.06-8.03-19.38-8.03h-51.18c-7.43,0-14.76-0.9-21.77-2.67
		c-17.27-4.36-36.77-4.08-60.82,1.11C118.87,280.85,129.07,273.31,140.53,273.31z M344.56,297.85c-0.05,0.21-0.19,0.49-0.53,0.67
		c-0.16,0.09-0.32,0.18-0.48,0.29l-92.91,61.32c-14.18,7.91-30.74,10.48-46.65,7.23l-41.57-8.49c-24.73-5.05-50.07-7.61-75.31-7.61
		H85.4v-38.54c37.35-12.25,64-15.24,86-9.69c7.97,2.01,16.28,3.03,24.71,3.03h51.18c4.11,0,7.98,1.6,10.9,4.52
		c2.54,2.54,4.09,5.82,4.44,9.35c0.01,0.08,0.01,0.16,0.02,0.24c0.04,0.43,0.05,0.86,0.05,1.29c0,0.23-0.11,0.39-0.21,0.49
		c-0.09,0.09-0.25,0.21-0.48,0.21h-60.83c-3.31,0-6,2.69-6,6s2.69,6,6,6h60.83c3.39,0,6.57-1.33,8.97-3.73
		c2.09-2.09,3.36-4.78,3.65-7.67l49.69-31.94c7.26-3.75,16.26-0.99,20.14,6.25C344.63,297.38,344.61,297.66,344.56,297.85z"/>
</g>
</svg>
